<svg width="190" height="59" viewBox="0 0 190 59" fill="none" xmlns="http://www.w3.org/2000/svg">
<rect x="1.5" y="1.5" width="187" height="56" rx="7.5" stroke="#7C76BB" stroke-width="3"/>
<path d="M44.0586 35.7266V38H33.5586V21.0898H36.1836V35.7266H44.0586ZM53 28.3789C52.4453 27.7852 51.7305 27.4883 50.8555 27.4883C49.9805 27.4883 49.2539 27.7891 48.6758 28.3906C48.0977 28.9844 47.7773 29.7539 47.7148 30.6992H53.8789C53.8477 29.7461 53.5547 28.9727 53 28.3789ZM53.8672 34.3789H56.2695C56.0898 35.5117 55.5117 36.4375 54.5352 37.1562C53.5586 37.875 52.3672 38.2344 50.9609 38.2344C49.1562 38.2344 47.7344 37.668 46.6953 36.5352C45.6641 35.3945 45.1484 33.8477 45.1484 31.8945C45.1484 29.957 45.6641 28.3984 46.6953 27.2188C47.7344 26.0391 49.1211 25.4492 50.8555 25.4492C52.5586 25.4492 53.9102 26.0078 54.9102 27.125C55.9102 28.2344 56.4102 29.7266 56.4102 31.6016V32.4688H47.7031V32.6211C47.7031 33.6992 48.0039 34.5625 48.6055 35.2109C49.207 35.8594 50.0117 36.1836 51.0195 36.1836C51.7305 36.1836 52.3398 36.0195 52.8477 35.6914C53.3555 35.3633 53.6953 34.9258 53.8672 34.3789ZM59.1172 22.7539H61.6602V25.6719H64.0039V27.6758H61.6602V34.4727C61.6602 35.0039 61.7812 35.3945 62.0234 35.6445C62.2656 35.8945 62.6445 36.0195 63.1602 36.0195C63.5352 36.0195 63.8125 36 63.9922 35.9609V37.9648C63.6797 38.043 63.2109 38.082 62.5859 38.082C61.3438 38.082 60.4531 37.8281 59.9141 37.3203C59.3828 36.8047 59.1172 35.9492 59.1172 34.7539V27.6758H57.3242V25.6719H59.1172V22.7539ZM68.0117 27.2773H65.9961L67.0391 21.0898H69.6055L68.0117 27.2773ZM70.3906 29.1641C70.3906 28.0625 70.8359 27.168 71.7266 26.4805C72.6172 25.793 73.7812 25.4492 75.2188 25.4492C76.5859 25.4492 77.707 25.7969 78.582 26.4922C79.4648 27.1797 79.9258 28.0742 79.9648 29.1758H77.5859C77.5234 28.6133 77.2773 28.1719 76.8477 27.8516C76.418 27.5312 75.8516 27.3711 75.1484 27.3711C74.4609 27.3711 73.9062 27.5234 73.4844 27.8281C73.0703 28.1328 72.8633 28.5273 72.8633 29.0117C72.8633 29.7617 73.4922 30.293 74.75 30.6055L76.8242 31.0859C78.0664 31.3828 78.9453 31.7891 79.4609 32.3047C79.9844 32.8125 80.2461 33.5234 80.2461 34.4375C80.2461 35.5625 79.7695 36.4766 78.8164 37.1797C77.8711 37.8828 76.6406 38.2344 75.125 38.2344C73.6797 38.2344 72.5 37.8906 71.5859 37.2031C70.6797 36.5156 70.1758 35.6016 70.0742 34.4609H72.582C72.6836 35.0547 72.9609 35.5117 73.4141 35.832C73.8672 36.1445 74.4766 36.3008 75.2422 36.3008C76 36.3008 76.5977 36.1562 77.0352 35.8672C77.4805 35.5703 77.7031 35.1719 77.7031 34.6719C77.7031 34.2734 77.5703 33.957 77.3047 33.7227C77.0391 33.4883 76.5859 33.2891 75.9453 33.125L73.7422 32.5859C71.5078 32.0469 70.3906 30.9062 70.3906 29.1641ZM87.8281 22.7539H90.3711V25.6719H92.7148V27.6758H90.3711V34.4727C90.3711 35.0039 90.4922 35.3945 90.7344 35.6445C90.9766 35.8945 91.3555 36.0195 91.8711 36.0195C92.2461 36.0195 92.5234 36 92.7031 35.9609V37.9648C92.3906 38.043 91.9219 38.082 91.2969 38.082C90.0547 38.082 89.1641 37.8281 88.625 37.3203C88.0938 36.8047 87.8281 35.9492 87.8281 34.7539V27.6758H86.0352V25.6719H87.8281V22.7539ZM98.9258 36.207C99.8164 36.207 100.562 35.9375 101.164 35.3984C101.773 34.8516 102.078 34.1797 102.078 33.3828V32.4102L99.043 32.5977C98.2852 32.6523 97.6992 32.8398 97.2852 33.1602C96.8789 33.4727 96.6758 33.8945 96.6758 34.4258C96.6758 34.9648 96.8789 35.3984 97.2852 35.7266C97.6992 36.0469 98.2461 36.207 98.9258 36.207ZM98.2227 38.2109C97.0117 38.2109 96.0234 37.8672 95.2578 37.1797C94.5 36.4922 94.1211 35.5977 94.1211 34.4961C94.1211 33.418 94.5195 32.5625 95.3164 31.9297C96.1133 31.2891 97.2422 30.9297 98.7031 30.8516L102.078 30.6523V29.7031C102.078 29.0156 101.859 28.4805 101.422 28.0977C100.984 27.707 100.379 27.5117 99.6055 27.5117C98.8867 27.5117 98.3008 27.6719 97.8477 27.9922C97.4023 28.3125 97.1211 28.7539 97.0039 29.3164H94.6133C94.6836 28.1758 95.1758 27.2461 96.0898 26.5273C97.0039 25.8086 98.207 25.4492 99.6992 25.4492C101.191 25.4492 102.379 25.8164 103.262 26.5508C104.152 27.2852 104.598 28.2695 104.598 29.5039V38H102.172V35.9727H102.113C101.762 36.6523 101.227 37.1953 100.508 37.6016C99.7969 38.0078 99.0352 38.2109 98.2227 38.2109ZM107.152 38V21.0898H109.684V38H107.152ZM114.934 30.957L119.914 25.6719H122.891L117.781 30.9805L123.09 38H120.148L115.965 32.5273L114.91 33.5703V38H112.379V21.0898H114.91V30.957H114.934Z" fill="#7C76BB"/>
<path d="M149.038 23.8433L147.627 25.2608L150.897 28.5157L137.292 28.5294L137.294 30.5294L150.862 30.5158L147.647 33.746L149.064 35.1569L154.708 29.4869L149.038 23.8433Z" fill="#7C76BB"/>
</svg>
