<svg width="26" height="27" viewBox="0 0 26 27" fill="none" xmlns="http://www.w3.org/2000/svg">
<path d="M19.1284 18.545L14.5318 23.1416C14.3308 23.3428 14.0921 23.5024 13.8294 23.6114C13.5666 23.7203 13.285 23.7763 13.0005 23.7763C12.7161 23.7763 12.4345 23.7203 12.1717 23.6114C11.909 23.5024 11.6703 23.3428 11.4693 23.1416L6.87159 18.545C5.65958 17.3329 4.8342 15.7887 4.49983 14.1075C4.16547 12.4264 4.33712 10.6838 4.99309 9.10022C5.64907 7.51662 6.75989 6.1631 8.18511 5.21081C9.61033 4.25852 11.2859 3.75024 13 3.75024C14.7141 3.75024 16.3897 4.25852 17.8149 5.21081C19.2401 6.1631 20.3509 7.51662 21.0069 9.10022C21.6629 10.6838 21.8345 12.4264 21.5002 14.1075C21.1658 15.7887 20.3404 17.3329 19.1284 18.545V18.545Z" stroke="#7C76BB" stroke-width="2" stroke-linecap="round" stroke-linejoin="round"/>
<path d="M16.25 12.4164C16.25 13.2783 15.9076 14.105 15.2981 14.7145C14.6886 15.324 13.862 15.6664 13 15.6664C12.138 15.6664 11.3114 15.324 10.7019 14.7145C10.0924 14.105 9.75 13.2783 9.75 12.4164C9.75 11.5544 10.0924 10.7278 10.7019 10.1183C11.3114 9.50879 12.138 9.16638 13 9.16638C13.862 9.16638 14.6886 9.50879 15.2981 10.1183C15.9076 10.7278 16.25 11.5544 16.25 12.4164V12.4164Z" stroke="#7C76BB" stroke-width="2" stroke-linecap="round" stroke-linejoin="round"/>
</svg>
