<svg width="267" height="43" viewBox="0 0 267 43" fill="none" xmlns="http://www.w3.org/2000/svg">
<path d="M31.6352 16.0573L29.0954 18.5852L23.2636 12.726L23.2391 37.1017L19.6558 37.0981L19.6802 12.7891L13.8927 18.5496L11.3648 16.0099L21.5237 5.89844L31.6352 16.0573Z" fill="#FF87B0"/>
<path d="M49.7676 8.63477V24.6484C49.7676 26.4062 50.2832 27.8184 51.3145 28.8848C52.3574 29.9395 53.8047 30.4668 55.6562 30.4668C57.5078 30.4668 58.9551 29.9395 59.998 28.8848C61.041 27.8184 61.5625 26.4062 61.5625 24.6484V8.63477H66.0801V25.0527C66.0801 27.8535 65.1367 30.1152 63.25 31.8379C61.375 33.5605 58.8438 34.4219 55.6562 34.4219C52.4805 34.4219 49.9492 33.5605 48.0625 31.8379C46.1758 30.1152 45.2324 27.8535 45.2324 25.0527V8.63477H49.7676ZM70.5801 8.63477H80.4414C82.9727 8.63477 85.0293 9.41992 86.6113 10.9902C88.1934 12.5488 88.9844 14.5938 88.9844 17.125C88.9844 19.6445 88.1699 21.6895 86.541 23.2598C84.9238 24.8301 82.8262 25.6152 80.248 25.6152H75.1152V34H70.5801V8.63477ZM75.1152 12.3438V21.959H79.2285C80.8574 21.959 82.123 21.5371 83.0254 20.6934C83.9277 19.8496 84.3789 18.6602 84.3789 17.125C84.3789 15.6016 83.9277 14.4238 83.0254 13.5918C82.1348 12.7598 80.875 12.3438 79.2461 12.3438H75.1152ZM110.148 34H99.5137V8.63477H110.043C112.352 8.63477 114.191 9.20898 115.562 10.3574C116.934 11.5059 117.619 13.041 117.619 14.9629C117.619 16.3223 117.174 17.5293 116.283 18.584C115.393 19.6387 114.297 20.2715 112.996 20.4824V20.623C114.73 20.7871 116.137 21.4375 117.215 22.5742C118.305 23.7109 118.85 25.1172 118.85 26.793C118.85 29.0312 118.076 30.7949 116.529 32.084C114.982 33.3613 112.855 34 110.148 34ZM104.049 12.168V19.3223H108.197C109.779 19.3223 110.998 19.0059 111.854 18.373C112.709 17.7285 113.137 16.8145 113.137 15.6309C113.137 14.5293 112.768 13.6797 112.029 13.082C111.303 12.4727 110.26 12.168 108.9 12.168H104.049ZM104.049 30.4668H109.111C110.775 30.4668 112.041 30.127 112.908 29.4473C113.787 28.7676 114.227 27.7773 114.227 26.4766C114.227 25.1875 113.775 24.209 112.873 23.541C111.982 22.873 110.664 22.5391 108.918 22.5391H104.049V30.4668ZM126.619 8.63477V24.6484C126.619 26.4062 127.135 27.8184 128.166 28.8848C129.209 29.9395 130.656 30.4668 132.508 30.4668C134.359 30.4668 135.807 29.9395 136.85 28.8848C137.893 27.8184 138.414 26.4062 138.414 24.6484V8.63477H142.932V25.0527C142.932 27.8535 141.988 30.1152 140.102 31.8379C138.227 33.5605 135.695 34.4219 132.508 34.4219C129.332 34.4219 126.801 33.5605 124.914 31.8379C123.027 30.1152 122.084 27.8535 122.084 25.0527V8.63477H126.619ZM146.395 26.8633H150.789C150.93 28.0234 151.527 28.9609 152.582 29.6758C153.637 30.3789 154.943 30.7305 156.502 30.7305C158.025 30.7305 159.268 30.3906 160.229 29.7109C161.201 29.0312 161.688 28.1641 161.688 27.1094C161.688 26.1953 161.336 25.457 160.633 24.8945C159.93 24.3203 158.781 23.8457 157.188 23.4707L153.9 22.6973C151.568 22.1582 149.834 21.3203 148.697 20.1836C147.572 19.0469 147.01 17.5703 147.01 15.7539C147.01 13.5156 147.889 11.6992 149.646 10.3047C151.404 8.91016 153.672 8.21289 156.449 8.21289C159.238 8.21289 161.482 8.9043 163.182 10.2871C164.893 11.6582 165.777 13.4629 165.836 15.7012H161.512C161.406 14.5176 160.896 13.5918 159.982 12.9238C159.068 12.2441 157.879 11.9043 156.414 11.9043C154.984 11.9043 153.824 12.2266 152.934 12.8711C152.055 13.5156 151.615 14.3652 151.615 15.4199C151.615 16.2637 151.955 16.9492 152.635 17.4766C153.326 18.0039 154.451 18.4551 156.01 18.8301L158.928 19.498C161.494 20.084 163.357 20.9395 164.518 22.0645C165.678 23.1895 166.258 24.6953 166.258 26.582C166.258 28.9844 165.355 30.8945 163.551 32.3125C161.758 33.7188 159.326 34.4219 156.256 34.4219C153.326 34.4219 150.971 33.748 149.189 32.4004C147.42 31.041 146.488 29.1953 146.395 26.8633ZM174.221 34H169.686V8.63477H174.221V34ZM183.062 34H178.686V8.63477H182.623L195.209 26.4062H195.367V8.63477H199.727V34H195.824L183.221 16.2109H183.062V34ZM220.627 30.168V34H204.209V8.63477H220.627V12.4668H208.744V19.3223H219.977V22.9258H208.744V30.168H220.627ZM223.527 26.8633H227.922C228.062 28.0234 228.66 28.9609 229.715 29.6758C230.77 30.3789 232.076 30.7305 233.635 30.7305C235.158 30.7305 236.4 30.3906 237.361 29.7109C238.334 29.0312 238.82 28.1641 238.82 27.1094C238.82 26.1953 238.469 25.457 237.766 24.8945C237.062 24.3203 235.914 23.8457 234.32 23.4707L231.033 22.6973C228.701 22.1582 226.967 21.3203 225.83 20.1836C224.705 19.0469 224.143 17.5703 224.143 15.7539C224.143 13.5156 225.021 11.6992 226.779 10.3047C228.537 8.91016 230.805 8.21289 233.582 8.21289C236.371 8.21289 238.615 8.9043 240.314 10.2871C242.025 11.6582 242.91 13.4629 242.969 15.7012H238.645C238.539 14.5176 238.029 13.5918 237.115 12.9238C236.201 12.2441 235.012 11.9043 233.547 11.9043C232.117 11.9043 230.957 12.2266 230.066 12.8711C229.188 13.5156 228.748 14.3652 228.748 15.4199C228.748 16.2637 229.088 16.9492 229.768 17.4766C230.459 18.0039 231.584 18.4551 233.143 18.8301L236.061 19.498C238.627 20.084 240.49 20.9395 241.65 22.0645C242.811 23.1895 243.391 24.6953 243.391 26.582C243.391 28.9844 242.488 30.8945 240.684 32.3125C238.891 33.7188 236.459 34.4219 233.389 34.4219C230.459 34.4219 228.104 33.748 226.322 32.4004C224.553 31.041 223.621 29.1953 223.527 26.8633ZM245.781 26.8633H250.176C250.316 28.0234 250.914 28.9609 251.969 29.6758C253.023 30.3789 254.33 30.7305 255.889 30.7305C257.412 30.7305 258.654 30.3906 259.615 29.7109C260.588 29.0312 261.074 28.1641 261.074 27.1094C261.074 26.1953 260.723 25.457 260.02 24.8945C259.316 24.3203 258.168 23.8457 256.574 23.4707L253.287 22.6973C250.955 22.1582 249.221 21.3203 248.084 20.1836C246.959 19.0469 246.396 17.5703 246.396 15.7539C246.396 13.5156 247.275 11.6992 249.033 10.3047C250.791 8.91016 253.059 8.21289 255.836 8.21289C258.625 8.21289 260.869 8.9043 262.568 10.2871C264.279 11.6582 265.164 13.4629 265.223 15.7012H260.898C260.793 14.5176 260.283 13.5918 259.369 12.9238C258.455 12.2441 257.266 11.9043 255.801 11.9043C254.371 11.9043 253.211 12.2266 252.32 12.8711C251.441 13.5156 251.002 14.3652 251.002 15.4199C251.002 16.2637 251.342 16.9492 252.021 17.4766C252.713 18.0039 253.838 18.4551 255.396 18.8301L258.314 19.498C260.881 20.084 262.744 20.9395 263.904 22.0645C265.064 23.1895 265.645 24.6953 265.645 26.582C265.645 28.9844 264.742 30.8945 262.938 32.3125C261.145 33.7188 258.713 34.4219 255.643 34.4219C252.713 34.4219 250.357 33.748 248.576 32.4004C246.807 31.041 245.875 29.1953 245.781 26.8633Z" fill="#7C76BB"/>
</svg>
